HIERARCHY
ROOT Hips
{
	OFFSET 0.000000 0.000000 0.000000 
	CHANNELS 6 Xposition Yposition Zposition Zrotation Yrotation Xrotation
	JOINT LeftUpLeg
	{
		OFFSET 1.363060 -1.794630 0.839290 
		CHANNELS 3 Zrotation Yrotation Xrotation
		JOINT LeftLeg
		{
			OFFSET 2.448110 -6.726130 0.000000 
			CHANNELS 3 Zrotation Yrotation Xrotation
			JOINT LeftFoot
			{
				OFFSET 2.562200 -7.039590 0.000000 
				CHANNELS 3 Zrotation Yrotation Xrotation
				JOINT LeftToeBase
				{
					OFFSET 0.157640 -0.433110 2.322550 
					CHANNELS 3 Zrotation Yrotation Xrotation
					End Site
					{
						OFFSET 0.000000 0.000000 0.000000 
					}
				}
			}
		}
	}
	JOINT RightUpLeg
	{
		OFFSET -1.305520 -1.794630 0.839290 
		CHANNELS 3 Zrotation Yrotation Xrotation
		JOINT RightLeg
		{
			OFFSET -2.542530 -6.985550 0.000000 
			CHANNELS 3 Zrotation Yrotation Xrotation
			JOINT RightFoot
			{
				OFFSET -2.568260 -7.056230 0.000000 
				CHANNELS 3 Zrotation Yrotation Xrotation
				JOINT RightToeBase
				{
					OFFSET -0.164730 -0.452590 2.363150 
					CHANNELS 3 Zrotation Yrotation Xrotation
					End Site
					{
						OFFSET 0.000000 0.000000 0.000000 
					}
				}
			}
		}
	}
	JOINT Spine
	{
		OFFSET 0.028270 2.035590 -0.193380 
		CHANNELS 3 Zrotation Yrotation Xrotation
		JOINT Spine1
		{
			OFFSET 0.056720 2.048850 -0.042750 
			CHANNELS 3 Zrotation Yrotation Xrotation
			JOINT Neck1
			{
				OFFSET -0.054170 1.746240 0.172020 
				CHANNELS 3 Zrotation Yrotation Xrotation
				JOINT Head
				{
					OFFSET 0.104070 1.761360 -0.123970 
					CHANNELS 3 Zrotation Yrotation Xrotation
					End Site
					{
						OFFSET 0.000000 0.000000 0.000000 
					}
				}
			}
			JOINT LeftArm
			{
				OFFSET 3.362410 1.200890 -0.311210 
				CHANNELS 3 Zrotation Yrotation Xrotation
				JOINT LeftForeArm
				{
					OFFSET 4.983000 -0.000000 -0.000000 
					CHANNELS 3 Zrotation Yrotation Xrotation
					JOINT LeftHand
					{
						OFFSET 3.483560 -0.000000 -0.000000 
						CHANNELS 3 Zrotation Yrotation Xrotation
						JOINT LeftHandIndex1
						{
							OFFSET 0.715260 -0.000000 -0.000000 
							CHANNELS 3 Zrotation Yrotation Xrotation
							End Site
							{
								OFFSET 0.000000 0.000000 0.000000 
							}
						}
					}
				}
			}
			JOINT RightArm
			{
				OFFSET -3.136600 1.374050 -0.404650 
				CHANNELS 3 Zrotation Yrotation Xrotation
				JOINT RightForeArm
				{
					OFFSET -5.241900 -0.000000 -0.000000 
					CHANNELS 3 Zrotation Yrotation Xrotation
					JOINT RightHand
					{
						OFFSET -3.444170 -0.000000 -0.000000 
						CHANNELS 3 Zrotation Yrotation Xrotation
						JOINT RightHandIndex1
						{
							OFFSET -0.622530 -0.000000 -0.000000 
							CHANNELS 3 Zrotation Yrotation Xrotation
							End Site
							{
								OFFSET 0.000000 0.000000 0.000000 
							}
						}
					}
				}
			}
		}
	}
}
MOTION
Frames: 8
Frame Time: 0.041667
-11.667037 8.534478 44.099636 118.127858 31.392713 -0.143604 32.053985 51.196885 74.985100 42.277820 33.577213 108.185763 156.866826 32.997200 -42.121878 0.979700 -6.300700 -17.659300 -34.897288 86.549796 107.151093 -45.119332 -6.284114 63.889640 94.942328 -1.473338 10.439888 -0.091100 -1.946400 5.357600 -18.624653 -15.194535 -148.539744 54.698078 70.473521 -175.325979 -1.135375 -5.943943 -39.196529 -0.591500 -1.563900 21.598400 -94.485231 7.142928 -94.241558 -11.596499 -75.660054 152.987476 -19.554942 -18.267174 -24.999226 -7.125000 0.000000 0.000000 -101.901167 19.184698 105.079529 92.208476 60.778129 -12.975098 -72.420667 -11.790563 13.762720 7.125000 0.000000 0.000000 
-11.677575 8.535197 44.084067 -145.609348 -73.213308 47.999991 168.190320 -19.533682 -151.946857 -51.657005 80.787830 92.442458 -166.661903 83.278978 5.149719 1.079300 -6.603300 -18.545300 -110.989574 -45.302764 -0.894073 69.697505 -59.294925 -122.323307 143.934752 -72.451411 -76.867380 -0.082200 -1.849900 5.091000 7.587452 49.636249 -112.659083 174.848013 -50.689305 -149.919867 -18.908847 46.628490 -82.961276 -0.619800 -1.477800 21.527500 53.099277 88.687331 172.042200 -32.945628 85.687229 158.270175 -66.157988 34.849877 -72.327385 -7.125000 0.000000 0.000000 149.742668 -18.518581 61.941263 -42.854518 1.571325 177.759693 -35.873777 -7.280382 34.642702 7.125000 0.000000 0.000000 
-11.686676 8.531844 44.084307 -117.026124 63.987604 159.199248 -83.476165 -14.844073 -0.223298 144.923966 60.966026 32.372712 -30.793543 -6.294041 -135.865851 1.070700 -6.577900 -18.470700 -103.646543 45.611188 83.816639 -90.408068 -71.238751 33.802091 -19.928644 -60.993455 -172.034436 -0.072900 -1.742400 4.794200 -89.917531 -75.653347 -62.085883 -100.970740 61.111703 -102.836543 -103.724913 78.021295 50.679482 -0.673600 -1.405100 21.484900 -8.600487 -75.329678 -133.429189 -14.916874 41.926230 0.993871 90.853893 15.552754 25.086503 -7.125000 0.000000 0.000000 -148.526260 79.615712 34.953092 -108.431092 32.191330 -145.166985 -43.461087 57.143507 64.074918 7.125000 0.000000 0.000000 
-11.697694 8.529209 44.084786 -119.442473 -57.048988 -82.335768 130.375844 10.186790 169.726339 -108.023722 -72.799661 60.078279 -78.578977 70.381871 -10.764324 0.975300 -6.286800 -17.618800 -50.887176 61.374335 20.564670 154.475357 -79.910437 -55.256616 -159.675370 -22.814693 -92.908785 -0.093200 -1.969300 5.420800 158.527596 -7.797709 175.764477 -109.655328 17.485679 -149.591304 13.301681 8.798680 11.567282 -0.761800 -1.305400 21.449300 -159.877783 60.733983 76.157598 -31.437589 -89.382240 -8.009682 55.043135 0.722172 11.567321 -7.125000 0.000000 0.000000 -14.842544 66.729368 166.628777 24.545920 39.409290 -176.287273 -24.426976 20.844140 32.422257 7.125000 0.000000 0.000000 
-11.707993 8.526575 44.085265 -48.499732 -23.900407 -98.479599 -159.726521 73.616393 -14.292130 146.923818 -13.074066 44.994676 -31.648202 10.624266 -101.733720 0.900700 -6.048300 -16.924700 -109.785176 4.581044 -117.542400 70.324002 -84.276714 -135.740723 -114.101684 11.902941 136.114080 -0.096500 -2.003400 5.515000 176.277396 -20.512210 127.174826 -38.666120 67.564003 -120.766133 -112.237376 -64.909989 -154.945288 -0.826900 -1.215300 21.406000 78.080210 5.772814 -65.449748 16.247836 -1.990339 -169.387852 3.059760 -26.635621 17.139853 -7.125000 0.000000 0.000000 -104.234128 -78.574099 -22.524403 -116.743269 -33.210678 -173.293671 -23.195446 7.251908 29.728397 7.125000 0.000000 0.000000 
-11.717813 8.523940 44.086702 -57.730736 -13.234014 -35.034445 111.824131 -62.872591 105.574255 -86.769254 69.559954 132.319759 43.102538 -16.161755 102.665721 0.810700 -5.745800 -16.048500 -30.787402 19.837241 16.853625 -153.786602 79.678530 -169.420394 -7.454430 29.824676 -108.703129 -0.100000 -2.039200 5.613900 30.526370 50.876168 43.368372 26.298194 -46.112538 -140.884103 56.772106 24.046642 -11.685154 -0.887200 -1.122300 21.366700 156.324308 48.397910 59.426644 -2.368516 34.867566 9.327240 -39.782783 -34.214459 -7.859969 -7.125000 0.000000 0.000000 -135.656136 -27.242814 8.780116 -58.886700 88.591148 177.854641 -22.782805 -14.367056 17.385323 7.125000 0.000000 0.000000 
-11.726435 8.521784 44.085983 137.565657 -85.102026 -99.523645 150.637709 -45.477990 153.828352 147.565953 8.422273 170.026426 162.539209 -89.474330 22.881006 0.721900 -5.429300 -15.137100 87.001523 16.489095 91.084205 102.997969 74.272134 173.706879 51.796197 -78.888097 20.852889 -0.098100 -2.020200 5.561400 35.724836 -8.735539 158.749058 -154.098466 57.198928 97.034376 12.155736 -6.676421 85.628333 -0.937100 -1.026200 21.332000 89.498824 -89.039746 -77.494541 100.726942 -76.336376 176.717502 -26.132566 24.660095 -30.191391 -7.125000 0.000000 0.000000 -104.560614 41.289774 175.048808 53.490833 -7.923335 163.059048 -27.285092 -22.712775 6.486548 7.125000 0.000000 0.000000 
-11.734339 8.520347 44.082630 -20.645593 -27.341229 131.976517 -119.052872 -21.376381 -0.595011 -138.284150 -4.697672 -64.170720 9.359610 23.684958 -91.045510 0.634500 -5.096500 -14.183900 91.750530 65.147393 -95.036299 -41.082599 15.606826 -121.058727 -69.406078 -59.661884 -42.721539 -0.089200 -1.926200 5.301700 149.894769 -8.354648 -123.155156 2.059399 -15.024003 4.430296 31.530210 19.337121 -7.052520 -0.977900 -0.928400 21.298800 -164.439749 37.989584 18.018243 12.460279 41.703164 162.232599 -6.047187 -16.977215 -17.866136 -7.125000 0.000000 0.000000 -106.211442 -82.012996 17.394290 30.578349 -70.670613 155.890201 -26.987778 13.177295 1.657203 7.125000 0.000000 0.000000 
